<svg width="113" height="56" viewBox="0 0 113 56" fill="none" xmlns="http://www.w3.org/2000/svg">
<g clip-path="url(#clip0_92_2725)">
<path d="M37.2267 0.516399C39.8079 0.401679 41.9876 2.40929 42.1023 5.04787V5.10523C42.045 7.74381 39.8653 9.80879 37.2841 9.75143C37.2841 9.75143 37.2841 9.75143 37.2267 9.75143C34.5881 9.80879 32.4084 7.74381 32.3511 5.10523C32.4658 2.46665 34.6455 0.459039 37.2267 0.516399Z" fill="#AB37B8"/>
<path d="M16.5198 42.5614C14.8563 42.5614 13.1929 42.2172 11.7015 41.6436C10.0954 41.07 8.71878 39.9802 7.74365 38.6609V42.0452H0V0H7.68629V17.9538C8.71878 16.5771 10.0954 15.5447 11.6442 14.9711C16.5198 13.0208 22.1411 14.168 25.8695 17.8964C28.5655 20.7071 30.0568 24.4355 29.9421 28.336C30.0568 32.2365 28.5655 36.0223 25.8695 38.7756C23.403 41.1848 20.0188 42.5614 16.5198 42.5614ZM15.0284 21.2233C11.1279 21.2233 7.91573 24.3782 7.91573 28.2787C7.91573 32.1792 11.0706 35.3914 14.9711 35.3914C18.8716 35.3914 22.0838 32.2365 22.0838 28.336V28.2787C22.1411 24.4355 19.0437 21.2807 15.2005 21.2233C15.1431 21.2233 15.0858 21.2233 15.0284 21.2233Z" fill="#2C2C2C"/>
<path d="M33.4409 41.9879H41.1272V14.627H33.4409V41.9879Z" fill="#2C2C2C"/>
<path d="M69.6928 20.4777L55.9837 34.8178H69.6928V41.9879H45.0278V36.1945L58.4502 21.797H45.8882V14.627H69.7502L69.6928 20.4777Z" fill="#2C2C2C"/>
<path d="M73.9375 41.988H81.6238V-0.0571289H73.9375V41.988Z" fill="#2C2C2C"/>
<path d="M113 14.627L96.0785 55.4676H87.876L94.3577 39.4066L83.5166 14.627H92.0059L98.4877 30.4584L104.797 14.627H113Z" fill="#2C2C2C"/>
</g>
<defs>
<clipPath id="clip0_92_2725">
<rect width="113" height="55.4675" fill="white"/>
</clipPath>
</defs>
</svg>
